<?xml version="1.0" encoding="UTF-8" standalone="no"?>
<!-- Created with Inkscape (http://www.inkscape.org/) -->

<svg
   xmlns:dc="http://purl.org/dc/elements/1.1/"
   xmlns:cc="http://creativecommons.org/ns#"
   xmlns:rdf="http://www.w3.org/1999/02/22-rdf-syntax-ns#"
   xmlns:svg="http://www.w3.org/2000/svg"
   xmlns="http://www.w3.org/2000/svg"
   xmlns:xlink="http://www.w3.org/1999/xlink"
   xmlns:sodipodi="http://sodipodi.sourceforge.net/DTD/sodipodi-0.dtd"
   xmlns:inkscape="http://www.inkscape.org/namespaces/inkscape"
   version="1.1"
   id="svg3725"
   width="600"
   height="600"
   viewBox="0 0 599.99998 599.99998"
   sodipodi:docname="Paris_Saint-Germain_Logo.svg"
   inkscape:version="0.91 r13725">
  <metadata
     id="metadata3731">
    <rdf:RDF>
      <cc:Work
         rdf:about="">
        <dc:format>image/svg+xml</dc:format>
        <dc:type
           rdf:resource="http://purl.org/dc/dcmitype/StillImage" />
        <dc:title></dc:title>
      </cc:Work>
    </rdf:RDF>
  </metadata>
  <defs
     id="defs3729">
    <linearGradient
       id="linearGradient5407"
       inkscape:collect="always">
      <stop
         id="stop5409"
         offset="0"
         style="stop-color:#dd4b44;stop-opacity:1" />
      <stop
         style="stop-color:#de5448;stop-opacity:1"
         offset="0.20327166"
         id="stop5420" />
      <stop
         style="stop-color:#db3d39;stop-opacity:1"
         offset="0.34521106"
         id="stop5417" />
      <stop
         style="stop-color:#cc2c2e;stop-opacity:1"
         offset="0.48515955"
         id="stop5415" />
      <stop
         style="stop-color:#ae2826;stop-opacity:1"
         offset="0.74918306"
         id="stop5413" />
      <stop
         id="stop5411"
         offset="1"
         style="stop-color:#8a211b;stop-opacity:1" />
    </linearGradient>
    <linearGradient
       inkscape:collect="always"
       id="linearGradient5355">
      <stop
         style="stop-color:#2277b6;stop-opacity:1"
         offset="0"
         id="stop5357" />
      <stop
         id="stop5369"
         offset="0.10446245"
         style="stop-color:#4086c2;stop-opacity:1" />
      <stop
         id="stop5363"
         offset="0.22375357"
         style="stop-color:#1b73b3;stop-opacity:1" />
      <stop
         style="stop-color:#124783;stop-opacity:1"
         offset="0.5395391"
         id="stop5365" />
      <stop
         id="stop5367"
         offset="0.78362703"
         style="stop-color:#003e73;stop-opacity:1" />
      <stop
         style="stop-color:#002448;stop-opacity:1"
         offset="1"
         id="stop5359" />
    </linearGradient>
    <pattern
       patternUnits="userSpaceOnUse"
       width="178.16786"
       height="199.71036"
       patternTransform="translate(-328.3183,-112.59276)"
       id="pattern4124">
      <g
         transform="matrix(0.8064028,0,0,0.7700541,264.81301,86.781828)"
         id="g4119">
        <path
           style="fill:#fcef3c;fill-opacity:1;stroke:#000000;stroke-width:3.80701542;stroke-miterlimit:4;stroke-dasharray:none;stroke-opacity:1;display:inline"
           sodipodi:nodetypes="cccccccccccccccccccccccccccccccccccccccc"
           id="path4262"
           d="M -267.3739,-6.8529926 L -272.22258,16.977187 L -277.07128,-6.8529926 L -277.07128,-26.380603 L -277.07128,-51.593813 L -302.28445,-51.593813 L -302.28445,-37.047743 L -311.98183,-37.047743 L -311.98183,-51.593813 L -326.5279,-51.593813 L -326.5279,-61.291192 L -311.98183,-61.291192 L -311.98183,-75.837272 L -302.28445,-75.837272 L -302.28445,-61.291192 L -277.07128,-61.291192 L -277.07128,-86.504393 L -291.61734,-86.504393 L -291.61734,-96.201773 L -277.07128,-96.201773 L -277.07128,-110.74784 L -267.3739,-110.74784 L -267.3739,-96.201773 L -252.82782,-96.201773 L -252.82782,-86.504393 L -267.3739,-86.504393 L -267.3739,-61.291192 L -242.1607,-61.291192 L -242.1607,-75.837272 L -232.46332,-75.837272 L -232.46332,-61.291192 L -217.91725,-61.291192 L -217.91725,-51.593813 L -232.46332,-51.593813 L -232.46332,-37.047743 L -242.1607,-37.047743 L -242.1607,-51.593813 L -267.3739,-51.593813 L -267.3739,-26.380603 L -267.3739,-6.8529926 z"
           inkscape:tile-cx="-271.30875"
           inkscape:tile-cy="-47.720769"
           inkscape:tile-w="108.61065"
           inkscape:tile-h="127.72503"
           inkscape:tile-x0="-325.61408"
           inkscape:tile-y0="-111.58328" />
        <use
           height="658.97394"
           width="601.46545"
           x="0"
           y="0"
           inkscape:tiled-clone-of="#path4262"
           xlink:href="#path4262"
           id="use2607" />
        <use
           height="658.97394"
           width="601.46545"
           x="0"
           y="0"
           inkscape:tiled-clone-of="#path4262"
           xlink:href="#path4262"
           transform="translate(108.61065,127.72503)"
           id="use2613" />
      </g>
    </pattern>
    <radialGradient
       inkscape:collect="always"
       xlink:href="#linearGradient5355"
       id="radialGradient5361"
       cx="184.60423"
       cy="139.94768"
       fx="184.60423"
       fy="139.94768"
       r="300"
       gradientTransform="matrix(1.1354319,1.1268333,-1.0165344,1.0242913,98.86179,-279.0127)"
       gradientUnits="userSpaceOnUse" />
    <linearGradient
       inkscape:collect="always"
       xlink:href="#linearGradient5407"
       id="linearGradient5403"
       x1="215.40262"
       y1="341.27567"
       x2="325.31998"
       y2="143.60168"
       gradientUnits="userSpaceOnUse"
       gradientTransform="matrix(1.25,0,0,-1.25,-4.6035156e-5,519.99996)" />
  </defs>
  <sodipodi:namedview
     pagecolor="#ffffff"
     bordercolor="#666666"
     borderopacity="1"
     objecttolerance="10"
     gridtolerance="10"
     guidetolerance="10"
     inkscape:pageopacity="0"
     inkscape:pageshadow="2"
     inkscape:window-width="1440"
     inkscape:window-height="788"
     id="namedview3727"
     showgrid="false"
     inkscape:zoom="0.31908058"
     inkscape:cx="696.50715"
     inkscape:cy="345.01583"
     inkscape:window-x="0"
     inkscape:window-y="1"
     inkscape:window-maximized="1"
     inkscape:current-layer="svg3725" />
  <g
     id="g5566"
     transform="translate(0,80)">
    <g
       id="g5562">
      <path
         inkscape:connector-curvature="0"
         id="path620"
         style="fill:url(#radialGradient5361);fill-opacity:1;fill-rule:nonzero;stroke:none"
         d="M 300,-80.000003 C 134.56898,-80.000003 4.414844e-6,54.587447 4.414844e-6,219.9881 4.414844e-6,385.41255 134.56898,520 300,520 465.43103,520 600,385.41255 600,219.9881 600,54.587447 465.43103,-80.000002 300,-80.000002" />
      <path
         inkscape:connector-curvature="0"
         id="path622"
         style="fill:#ffffff;fill-opacity:1;fill-rule:nonzero;stroke:none"
         d="m 299.59042,-58.468865 c -74.41658,0 -144.35625,28.979638 -196.95984,81.581137 C 50.00318,75.713773 21.022389,145.67448 21.022389,220.0643 c 0,74.41361 28.980791,144.37432 81.608191,196.97582 52.60359,52.62532 122.54326,81.58114 196.95984,81.58114 74.41657,0 144.35625,-28.95582 196.95983,-81.58114 52.6274,-52.6015 81.60819,-122.56221 81.60819,-196.97582 0,-74.38982 -28.98079,-144.350527 -81.60819,-196.952028 -52.60358,-52.6015 -122.54326,-81.581137 -196.95983,-81.581137 m 0,11.025113 c 147.76155,0 267.54246,119.776175 267.54246,267.508052 0,147.75567 -119.78091,267.53184 -267.54246,267.53184 -147.76155,0 -267.542471,-119.77617 -267.542471,-267.53184 0,-147.731877 119.780921,-267.508052 267.542471,-267.508052" />
    </g>
    <g
       id="g5529">
      <g
         id="g5422">
        <g
           transform="matrix(1.25,0,0,-1.25,-4.6035156e-5,519.99996)"
           id="g5849">
          <g
             id="g5845">
            <path
               id="path636"
               transform="matrix(0.8,0,0,-0.8,3.6828125e-5,415.99997)"
               d="m 299.7793,67.753906 c -4.71504,0 -9.40756,0.261203 -14.02735,0.666016 -1.04778,58.030708 -15.23912,107.656738 -39.19531,149.685548 l 106.34961,0 C 328.95008,176.07666 314.78057,126.45063 313.70898,68.419922 309.13682,68.015109 304.49433,67.753906 299.7793,67.753906 Z M 243.06641,224.08203 c -18.78869,31.17038 -43.05438,58.05345 -71.41602,80.96094 12.26385,18.64507 28.45791,34.45701 47.46094,46.24414 -0.7144,-4.0481 -1.09571,-8.19109 -1.09571,-12.42969 0,-42.21931 36.60156,-76.4375 81.7754,-76.4375 45.15001,0 81.77343,34.21819 81.77343,76.4375 0,4.2386 -0.37935,8.38159 -1.09375,12.42969 18.9554,-11.76331 35.17207,-27.57405 47.41211,-46.19531 -28.38545,-22.90749 -52.65233,-49.81558 -71.46484,-81.00977 l -113.35156,0 z"
               style="fill:url(#linearGradient5403);fill-opacity:1;fill-rule:nonzero;stroke:none"
               inkscape:connector-curvature="0" />
          </g>
          <path
             id="path640"
             style="fill:#ffffff;fill-opacity:1;fill-rule:nonzero;stroke:none"
             d="m 257.1399,360.54956 c 59.51421,-8.42005 105.29291,-59.5309 105.29291,-121.34778 0,-19.81188 -4.72456,-38.49982 -13.06874,-55.07322 -54.00858,40.53816 -86.83283,97.64972 -92.22417,176.421 m 47.22655,-225.56971 c 0.57152,3.21943 0.87633,6.53411 0.87633,9.92499 0,33.77545 -29.28084,61.16919 -65.41991,61.16919 -36.12002,0 -65.41991,-27.39374 -65.41991,-61.16919 0,-3.39088 0.30481,-6.70556 0.87633,-9.92499 -15.18336,9.41064 -28.15685,22.05977 -37.96793,36.99488 22.68932,18.30694 42.10192,39.81426 57.13288,64.76961 l 90.68106,0 c 15.05001,-24.9744 34.46261,-46.48172 57.19003,-64.80771 -9.81108,-14.91606 -22.76552,-27.54614 -37.94888,-36.95678 M 283.8108,124.76911 c -13.65931,-5.25777 -28.48071,-8.1724 -43.98793,-8.1724 -15.50722,0 -30.32862,2.91463 -43.98793,8.1724 -4.99127,7.5628 -7.86792,16.4972 -7.86792,26.07929 0,27.20324 23.22273,49.26301 51.85585,49.26301 28.65217,0 51.8749,-22.05977 51.8749,-49.26301 0,-9.58209 -2.8957,-18.51649 -7.88697,-26.07929 M 117.23198,239.20178 c 0,61.83593 45.7787,112.94678 105.31196,121.34778 -5.39134,-78.79033 -38.21559,-135.90189 -92.24322,-176.421 -8.34418,16.55435 -13.06874,35.26134 -13.06874,55.07322 M 239.82287,361.7878 c 3.77203,0 7.4869,-0.1905 11.14463,-0.53339 0.85727,-46.42458 12.19241,-86.10549 31.35735,-119.74759 l -85.08017,0 c 19.184,33.6421 30.51913,73.32301 31.35736,119.74759 3.69583,0.34289 7.4488,0.53339 11.22083,0.53339 m 0,8.8201 c -72.46865,0 -131.41134,-58.9594 -131.41134,-131.40612 0,-72.46577 58.94269,-131.42517 131.41134,-131.42517 72.46865,0 131.43039,58.9594 131.43039,131.42517 0,72.44672 -58.96174,131.40612 -131.43039,131.40612"
             inkscape:connector-curvature="0" />
        </g>
        <g
           transform="matrix(1.25,0,0,-1.25,-4.6035156e-5,519.99996)"
           id="g5839">
          <path
             sodipodi:nodetypes="ccccccccc"
             inkscape:connector-curvature="0"
             id="path642"
             style="fill:#c2a24e;fill-opacity:1;fill-rule:nonzero;stroke:none"
             d="m 244.18356,136.23714 -4.3626,5.06727 -4.36259,-5.06727 -0.17146,-0.47625 c 0.85728,-1.73354 2.34323,-3.86712 4.13399,-5.31492 l 0.40006,-0.20954 0.40007,0.20954 c 1.80981,1.4478 3.27671,3.58138 4.15304,5.31492 l -0.19051,0.47625" />
          <path
             id="path644"
             style="fill:#c2a24e;fill-opacity:1;fill-rule:nonzero;stroke:none"
             d="m 248.36327,163.7528 c 0,5.01012 -6.55342,20.63102 -8.53468,20.63102 l -0.49532,-0.20954 c -2.38133,-1.94309 -8.03937,-15.75426 -8.03937,-20.42148 0,-3.73378 7.54405,-13.58257 7.54405,-18.93559 l 0,0 0.99064,-0.9906 0.99063,0.9906 0,0.0381 c 0.0381,5.35302 7.54405,15.16371 7.54405,18.89749"
             inkscape:connector-curvature="0" />
          <path
             sodipodi:nodetypes="cssaaaaaacccccc"
             inkscape:connector-curvature="0"
             id="path646"
             style="fill:#c2a24e;fill-opacity:1;fill-rule:nonzero;stroke:none"
             d="m 235.56886,145.28012 c -3.54342,9.33445 -9.63962,14.43982 -16.00254,14.43982 -4.78171,0 -8.68709,-3.88618 -8.68709,-8.68675 0,-4.80057 4.67062,-7.88836 8.68709,-8.68675 1.30124,-0.25866 2.79555,0.53224 3.67678,1.52399 0.71436,0.80395 1.44226,2.19061 0.87632,3.10513 -0.19727,0.31877 -0.77353,0.0343 -1.10493,0.20955 -1.21464,0.64227 -2.917,1.54063 -2.91475,2.91463 0.002,1.36952 1.547,2.82612 2.91475,2.89559 4.54523,0.23086 7.88696,-2.74319 10.61121,-8.5915 l 0,-0.0381 0.019,-0.0381 0.97158,-0.5715 1.06684,1.08584 -0.11431,0.43815" />
          <path
             sodipodi:nodetypes="cccccccaaaaaasc"
             inkscape:connector-curvature="0"
             id="path648"
             style="fill:#c2a24e;fill-opacity:1;fill-rule:nonzero;stroke:none"
             d="m 259.79747,159.72375 c -6.34387,0 -12.45912,-5.10537 -16.00254,-14.43982 l -0.0952,-0.43815 1.06683,-1.10489 0.95253,0.59055 0.019,0.0381 0.0191,0.019 c 2.70519,5.86736 6.06224,8.8466 10.6112,8.61055 1.36319,-0.0707 2.89346,-1.53057 2.8957,-2.89559 0.002,-1.36951 -1.68508,-2.27435 -2.8957,-2.91463 -0.3369,-0.17818 -0.92358,0.11463 -1.12398,-0.20955 -0.56963,-0.92146 0.17312,-2.31677 0.89538,-3.12418 0.879,-0.98263 2.36495,-1.76367 3.65772,-1.50494 4.01543,0.80362 8.68709,3.88618 8.68709,8.68675 0,4.80057 -3.88633,8.68675 -8.68709,8.68675" />
        </g>
      </g>
      <g
         id="g5507">
        <g
           transform="matrix(1.25,0,0,-1.25,-4.6035156e-5,519.99996)"
           id="g5817">
          <path
             id="path624"
             style="fill:#ffffff;fill-opacity:1;fill-rule:nonzero;stroke:none"
             d="m 299.96765,371.12796 21.18432,50.9394 c -3.48627,1.56209 -6.99159,2.99083 -10.57311,4.36242 L 289.4136,375.52849 c 3.58152,-1.3335 7.10589,-2.80034 10.55405,-4.40053"
             inkscape:connector-curvature="0" />
          <path
             id="path626"
             style="fill:#ffffff;fill-opacity:1;fill-rule:nonzero;stroke:none"
             d="m 238.94083,429.22059 20.49849,0 c 5.01032,0 9.08715,-4.07667 9.08715,-9.10584 0,-5.01012 -4.07683,-9.0868 -9.08715,-9.0868 l -20.49849,0 0,18.19264 z m 0,-44.63388 0,16.6877 13.96412,0 12.04,-19.04989 c 4.78171,-0.85724 9.46817,-1.96214 14.05938,-3.27658 l -14.44039,23.01226 c 8.28703,2.20979 15.10716,9.5059 15.10716,18.15455 0,10.40123 -9.84918,18.85938 -20.23178,18.85938 l -31.64312,0 0,-54.84462 c 3.67677,0.28575 7.3726,0.4572 11.12557,0.4572 l 0.0191,0 z"
             inkscape:connector-curvature="0" />
          <path
             id="path628"
             style="fill:#ffffff;fill-opacity:1;fill-rule:nonzero;stroke:none"
             d="m 106.12165,375.20845 15.0119,16.47815 c 3.39102,3.71473 9.16336,3.98143 12.85919,0.59055 3.71487,-3.37183 3.98158,-9.14395 0.59057,-12.83963 l -15.01191,-16.4972 -13.44975,12.26813 z m 33.14812,-30.19407 -12.49723,11.37278 15.46913,17.0306 c 7.01063,7.6771 7.01063,20.02143 -0.68583,27.03179 -7.67741,7.01036 -20.17463,6.03881 -27.18526,-1.63829 L 91.414551,373.53206 131.4209,337.07057 c 2.49564,2.76224 5.14367,5.39112 7.84887,7.94381"
             inkscape:connector-curvature="0" />
          <path
             id="path630"
             style="fill:#ffffff;fill-opacity:1;fill-rule:nonzero;stroke:none"
             d="m 348.21912,391.22559 c 8.24893,1.94309 23.41324,-13.12537 26.32799,-23.33611 2.40038,1.82879 7.77266,5.77212 7.77266,5.77212 -6.42006,18.24979 -31.94792,36.49958 -44.06413,25.06965 -7.20115,-6.80081 -3.12431,-17.2592 3.1624,-23.86951 l 6.09621,-6.41981 c 6.21051,-6.53411 11.63994,-13.04918 6.64867,-17.183 -5.31513,-4.40052 -20.21273,6.62936 -29.16653,25.56495 l -8.00127,-6.05787 c 1.90506,-4.97202 6.22956,-12.19192 12.02096,-18.30694 6.57247,-6.91511 13.73551,-11.42993 20.15558,-12.68722 5.04842,-0.9906 10.05874,-0.2286 13.37355,2.83843 8.26798,7.67711 5.25797,18.84034 -7.73456,32.51816 l -5.37229,5.65781 c -5.9819,6.30552 -3.54341,9.8869 -1.21924,10.43934"
             inkscape:connector-curvature="0" />
          <path
             id="path632"
             style="fill:#ffffff;fill-opacity:1;fill-rule:nonzero;stroke:none"
             d="m 175.49837,394.11737 0.95254,23.56471 15.50722,-17.7926 c -5.61994,-1.63829 -11.10653,-3.58138 -16.45976,-5.77211 m 3.31482,35.69948 c -3.92444,-1.23824 -7.79172,-2.60983 -11.60185,-4.11477 l -4.13399,-62.48363 c 3.71488,2.26694 7.52501,4.36242 11.43039,6.30551 l 0.59057,14.55411 c 7.525,3.33374 15.39292,6.07692 23.48944,8.21051 l 9.60153,-11.01084 c 4.22924,0.9144 8.51563,1.63829 12.85918,2.17169 l -42.23527,46.36742 z"
             inkscape:connector-curvature="0" />
        </g>
        <g
           transform="matrix(1.25,0,0,-1.25,-4.6035156e-5,519.99996)"
           id="g5824">
          <path
             id="path650"
             style="fill:#ffffff;fill-opacity:1;fill-rule:nonzero;stroke:none"
             d="m 132.98115,113.10867 -7.08684,-3.35278 4.91507,-4.19097 2.17177,7.54375 z m -2.64804,-19.983329 -2.64804,1.981188 2.22893,7.334211 -6.99159,5.94356 -6.95349,-3.31468 -2.36228,2.17169 20.5366,9.69639 2.51468,-2.13359 -6.32481,-21.678769 z"
             inkscape:connector-curvature="0" />
          <path
             id="path652"
             style="fill:#ffffff;fill-opacity:1;fill-rule:nonzero;stroke:none"
             d="m 150.62585,104.43716 -11.50658,-17.468743 -2.47659,1.63829 11.50659,17.449693 2.47658,-1.61924 z"
             inkscape:connector-curvature="0" />
          <path
             id="path654"
             style="fill:#ffffff;fill-opacity:1;fill-rule:nonzero;stroke:none"
             d="m 159.64824,98.695528 3.56247,-19.507085 0.0381,-0.01905 7.27735,13.830218 2.60993,-1.390641 -9.54437,-18.211692 -2.59089,1.181093 -3.60057,19.735683 -0.0381,0.01905 -7.39165,-14.020716 -2.53373,1.466841 9.60152,18.287891 2.60994,-1.371591 z"
             inkscape:connector-curvature="0" />
          <path
             id="path656"
             style="fill:#ffffff;fill-opacity:1;fill-rule:nonzero;stroke:none"
             d="m 195.18912,83.495623 -0.97158,-2.800334 -6.82013,2.381236 -5.84855,-16.78295 -2.7814,0.971544 5.84855,16.782951 -6.82013,2.362185 0.97158,2.800334 16.42166,-5.714966 z"
             inkscape:connector-curvature="0" />
          <path
             id="path658"
             style="fill:#ffffff;fill-opacity:1;fill-rule:nonzero;stroke:none"
             d="m 240.36772,68.147129 9.43007,-0.152399 -0.0953,-5.448268 c -0.0572,-3.695678 -4.15304,-6.095964 -9.31576,-6.019764 -5.46754,0.09525 -11.12558,3.943326 -11.01127,10.915585 0.0762,5.867365 4.83886,10.610787 11.43038,10.515538 4.89602,-0.0762 7.42975,-2.705084 8.61089,-3.867127 l -2.07652,-2.076438 c -1.00968,0.990594 -2.57183,2.914633 -6.28671,2.971782 -5.44848,0.09525 -8.66804,-3.40993 -8.72519,-7.715204 -0.0762,-4.038576 3.0481,-7.696154 8.24893,-7.791404 3.56247,-0.05715 6.1343,1.543041 6.15335,3.295631 l 0.0572,2.305036 -6.47721,0.114299 0.0571,2.952733 z"
             inkscape:connector-curvature="0" />
          <path
             id="path660"
             style="fill:#ffffff;fill-opacity:1;fill-rule:nonzero;stroke:none"
             d="m 272.38994,80.575275 0.41912,-2.933682 -13.73552,-1.962139 0.78108,-5.353018 6.91538,1.009644 0.41912,-2.952733 -6.91538,-0.971544 0.89538,-6.229313 14.23083,2.057388 0.41911,-2.933683 -17.16463,-2.457435 -2.91475,20.345279 16.65026,2.381236 z"
             inkscape:connector-curvature="0" />
          <path
             id="path662"
             style="fill:#ffffff;fill-opacity:1;fill-rule:nonzero;stroke:none"
             d="m 283.15356,80.285717 1.75266,-5.810216 8.76329,2.647935 c 2.11462,0.647696 2.99095,2.114537 2.41943,4.019526 -0.66677,2.228837 -2.53373,2.266936 -4.17209,1.790689 l -8.76329,-2.647934 z m 7.90601,5.467317 c 3.16241,0.952495 6.64868,0.247649 7.86792,-3.752827 1.27639,-4.267175 -1.18114,-6.476962 -2.78139,-7.105608 l 6.42006,-6.915109 -3.10525,-1.123944 -6.38197,7.010359 -7.3345,-2.209787 2.47659,-8.267651 -2.83855,-0.800095 -5.9057,19.678533 11.58279,3.486129 z"
             inkscape:connector-curvature="0" />
          <path
             id="path664"
             style="fill:#ffffff;fill-opacity:1;fill-rule:nonzero;stroke:none"
             d="m 336.27056,105.02962 1.505,-7.715209 5.27703,3.752829 -6.78203,3.96238 z m 18.53628,-7.429461 -2.59089,-2.057388 -6.36292,3.905227 -7.46785,-5.333968 1.4288,-7.448506 -2.62899,-1.67639 -4.34355,22.116916 2.68615,1.88594 19.27925,-11.391831 z"
             inkscape:connector-curvature="0" />
          <path
             id="path666"
             style="fill:#ffffff;fill-opacity:1;fill-rule:nonzero;stroke:none"
             d="m 348.38486,119.2294 14.04033,-15.10656 -2.22893,-1.96214 -13.98317,15.04941 2.17177,2.01929 z"
             inkscape:connector-curvature="0" />
          <path
             id="path668"
             style="fill:#ffffff;fill-opacity:1;fill-rule:nonzero;stroke:none"
             d="m 356.53663,127.28369 19.79362,-1.37159 0.0381,0.0572 -11.62089,10.43934 1.98127,2.19074 15.27861,-13.73497 -1.77171,-2.20979 -20.00317,1.37159 -0.0381,-0.0381 11.7733,-10.59173 -2.07653,-2.11454 -15.33576,13.79212 1.98126,2.20978 z"
             inkscape:connector-curvature="0" />
          <path
             id="path670"
             style="fill:#ffffff;fill-opacity:1;fill-rule:nonzero;stroke:none"
             d="m 321.71777,99.659452 -2.62898,-1.352542 -0.45722,-14.554114 -12.05906,8.191452 -2.62899,-1.352542 8.97286,-18.497441 2.70519,1.200143 -6.22956,13.144422 0.0381,0.0381 11.94475,-8.096202 0.45722,14.420765 0.0571,0.01905 6.99159,-12.782474 2.57183,1.447792 -9.73488,18.173592 z"
             inkscape:connector-curvature="0" />
          <path
             id="path672"
             style="fill:#ffffff;fill-opacity:1;fill-rule:nonzero;stroke:none"
             d="m 122.56426,126.15784 c -1.67646,6.26742 -8.03937,12.42053 -12.84014,12.42053 l -2.87664,-0.91439 -1.71456,-2.85749 c -0.24766,-1.82879 0.47626,-4.15287 2.00032,-6.17216 l 2.19082,-2.93368 c 1.69551,-2.26694 3.33386,-4.62913 2.99095,-6.49601 l -1.25734,-1.82879 -1.33355,-0.36195 c -2.9719,0 -8.00127,5.29587 -10.47785,12.89677 l -0.0381,0.13335 -2.171773,-2.03834 -0.0381,-0.0381 0,-0.0381 c 0.495317,-1.90498 1.790761,-4.97202 3.962533,-7.88665 2.28608,-3.04798 4.89601,-5.16252 7.3345,-5.96261 l 2.30512,-0.381 2.7433,0.80009 2.07652,3.29563 c 0.36196,2.41934 -0.91443,5.63877 -3.82918,9.5059 l -1.92412,2.59078 c -1.5431,2.07644 -1.48595,3.40993 -1.16209,4.17193 l 1.61931,1.21919 0.32386,0.0191 c 3.54342,0 8.53469,-5.86736 9.83013,-10.40124 l 0.0381,-0.1143 0.0952,0.0572 2.09558,1.20015 0.0762,0.0381 -0.019,0.0762 z"
             inkscape:connector-curvature="0" />
          <path
             id="path674"
             style="fill:#ffffff;fill-opacity:1;fill-rule:nonzero;stroke:none"
             d="m 212.90622,67.284169 -7.3345,1.61924 0.68582,2.952733 7.31545,-1.63829 -0.66677,-2.933683 z"
             inkscape:connector-curvature="0" />
        </g>
      </g>
    </g>
  </g>
</svg>
